<?xml version="1.0" standalone="no"?>
<!DOCTYPE svg PUBLIC "-//W3C//DTD SVG 20010904//EN"
 "http://www.w3.org/TR/2001/REC-SVG-20010904/DTD/svg10.dtd">
<svg version="1.0" xmlns="http://www.w3.org/2000/svg"
 width="512.000000pt" height="512.000000pt" viewBox="0 0 512.000000 512.000000"
 preserveAspectRatio="xMidYMid meet">
<metadata>
Created by potrace 1.14, written by Peter Selinger 2001-2017
</metadata>
<g transform="translate(0.000000,512.000000) scale(0.100000,-0.100000)"
fill="#000000" stroke="none">
<path d="M1189 4956 c-2 -2 -26 -7 -54 -10 -145 -19 -331 -92 -466 -183 -256
-171 -438 -453 -493 -763 -23 -128 -22 -2767 0 -2880 9 -41 17 -85 20 -98 15
-77 129 -327 164 -362 3 -3 25 -31 49 -63 124 -163 329 -307 539 -377 180 -60
147 -59 1632 -58 1290 0 1359 1 1447 19 406 84 728 361 867 747 27 75 28 80
51 202 21 115 21 2747 -1 2870 -74 420 -369 765 -770 899 -182 61 -123 59
-1615 60 -751 0 -1368 -1 -1370 -3z m2840 -344 c260 -80 456 -258 554 -502 57
-145 55 -88 56 -1550 0 -1309 0 -1347 -20 -1430 -55 -235 -203 -433 -411 -548
-51 -28 -152 -67 -203 -78 -11 -3 -40 -9 -65 -14 -27 -5 -602 -8 -1410 -7
l-1365 2 -73 23 c-152 47 -268 117 -377 227 -114 116 -197 279 -224 440 -6 38
-9 553 -8 1420 l2 1360 27 85 c96 305 327 517 638 584 55 12 286 14 1435 13
l1370 -2 74 -23z"/>
<path d="M1295 3345 c-43 -23 -83 -72 -91 -110 -3 -18 -4 -212 -1 -431 4 -376
5 -403 26 -474 98 -330 349 -548 654 -566 122 -8 215 12 336 72 157 78 280
215 356 397 60 145 65 204 63 639 -3 373 -4 388 -24 414 -38 52 -70 68 -134
69 -63 0 -95 -16 -134 -69 -20 -26 -21 -44 -27 -429 -3 -221 -8 -411 -11 -422
-46 -156 -133 -270 -246 -323 -47 -22 -71 -27 -142 -27 -74 0 -93 4 -143 29
-119 58 -220 196 -246 336 -5 30 -10 214 -11 409 0 195 -3 366 -7 380 -8 35
-37 75 -69 96 -37 24 -112 29 -149 10z"/>
<path d="M2895 3347 c-65 -30 -103 -103 -92 -175 3 -17 87 -162 187 -322 l181
-290 -88 -140 c-48 -77 -92 -148 -98 -158 -5 -9 -48 -78 -95 -152 -81 -129
-85 -137 -85 -192 1 -96 58 -152 154 -153 87 0 105 19 261 269 74 119 137 216
140 216 4 0 52 -74 229 -359 25 -40 60 -84 77 -97 66 -51 164 -38 218 29 27
33 31 47 31 96 -1 55 -4 61 -145 286 -79 127 -161 258 -182 293 l-39 63 142
227 c77 125 149 239 159 253 10 14 30 49 45 78 43 82 25 160 -48 215 -31 23
-105 30 -147 14 -43 -16 -63 -42 -201 -263 -74 -118 -136 -215 -139 -215 -5 0
-57 80 -179 278 -80 131 -104 163 -131 184 -34 25 -116 32 -155 15z"/>
</g>
</svg>
